<svg xmlns="http://www.w3.org/2000/svg" xmlns:xlink="http://www.w3.org/1999/xlink" width="500" zoomAndPan="magnify" viewBox="0 0 375 374.999991" height="500" preserveAspectRatio="xMidYMid meet" version="1.0"><defs><clipPath id="37fda9ade3"><path d="M 75.152344 37.5 L 300 37.5 L 300 261.28125 L 75.152344 261.28125 Z M 75.152344 37.5 " clip-rule="nonzero"/></clipPath><clipPath id="3912abc019"><path d="M 187.5 37.5 L 299.847656 261.28125 L 75.152344 261.28125 Z M 187.5 37.5 " clip-rule="nonzero"/></clipPath><clipPath id="f95c9ff235"><path d="M 37.5 261.28125 L 112.5 261.28125 L 112.5 337.746094 L 37.5 337.746094 Z M 37.5 261.28125 " clip-rule="nonzero"/></clipPath><clipPath id="00a9c4de56"><path d="M 75 261.28125 L 112.5 337.5 L 37.5 337.5 Z M 75 261.28125 " clip-rule="nonzero"/></clipPath><clipPath id="16faa84f51"><path d="M 112.5 261.28125 L 187.5 261.28125 L 187.5 337.746094 L 112.5 337.746094 Z M 112.5 261.28125 " clip-rule="nonzero"/></clipPath><clipPath id="d31f61c4f0"><path d="M 150 261.28125 L 187.5 337.5 L 112.5 337.5 Z M 150 261.28125 " clip-rule="nonzero"/></clipPath><clipPath id="1c22a7e1b5"><path d="M 187.5 261.28125 L 262.5 261.28125 L 262.5 337.746094 L 187.5 337.746094 Z M 187.5 261.28125 " clip-rule="nonzero"/></clipPath><clipPath id="4ce937dd91"><path d="M 225 261.28125 L 262.5 337.5 L 187.5 337.5 Z M 225 261.28125 " clip-rule="nonzero"/></clipPath><clipPath id="681c8373de"><path d="M 262.5 261.28125 L 337.5 261.28125 L 337.5 337.746094 L 262.5 337.746094 Z M 262.5 261.28125 " clip-rule="nonzero"/></clipPath><clipPath id="aa4990584e"><path d="M 300 261.28125 L 337.5 337.5 L 262.5 337.5 Z M 300 261.28125 " clip-rule="nonzero"/></clipPath></defs><g clip-path="url(#37fda9ade3)"><g clip-path="url(#3912abc019)"><path fill="#1f3b57" d="M 75.152344 37.5 L 299.808594 37.5 L 299.808594 261.28125 L 75.152344 261.28125 Z M 75.152344 37.5 " fill-opacity="1" fill-rule="nonzero"/></g></g><g clip-path="url(#f95c9ff235)"><g clip-path="url(#00a9c4de56)"><path fill="#1f3b57" d="M 37.5 261.28125 L 112.5 261.28125 L 112.5 337.453125 L 37.5 337.453125 Z M 37.5 261.28125 " fill-opacity="1" fill-rule="nonzero"/></g></g><g clip-path="url(#16faa84f51)"><g clip-path="url(#d31f61c4f0)"><path fill="#1f3b57" d="M 112.5 261.28125 L 187.5 261.28125 L 187.5 337.453125 L 112.5 337.453125 Z M 112.5 261.28125 " fill-opacity="1" fill-rule="nonzero"/></g></g><g clip-path="url(#1c22a7e1b5)"><g clip-path="url(#4ce937dd91)"><path fill="#1f3b57" d="M 187.5 261.28125 L 262.5 261.28125 L 262.5 337.453125 L 187.5 337.453125 Z M 187.5 261.28125 " fill-opacity="1" fill-rule="nonzero"/></g></g><g clip-path="url(#681c8373de)"><g clip-path="url(#aa4990584e)"><path fill="#1f3b57" d="M 262.5 261.28125 L 337.5 261.28125 L 337.5 337.453125 L 262.5 337.453125 Z M 262.5 261.28125 " fill-opacity="1" fill-rule="nonzero"/></g></g></svg>